<svg version="1.0" xmlns="http://www.w3.org/2000/svg"
 width="1280.000000pt" height="952.000000pt" viewBox="0 0 1280.000000 952.000000">
<g transform="translate(0.000000,952.000000) scale(0.100000,-0.100000)"
fill="#ffffff" stroke="none">
<path d="M8258 9515 c-2 -3 -44 -12 -92 -20 -157 -28 -198 -64 -302 -268 -105
-205 -166 -297 -198 -297 -36 0 -39 25 -30 203 11 214 11 343 1 353 -12 13
-550 -125 -571 -146 -20 -20 56 -637 95 -765 30 -103 34 -125 18 -125 -25 0
-120 61 -163 104 -115 114 -215 325 -216 452 -1 51 -32 118 -64 140 -32 20
-82 15 -178 -16 -90 -30 -314 -143 -373 -188 -68 -51 -69 -74 -12 -189 92
-182 257 -411 396 -548 109 -107 107 -141 -7 -117 -73 15 -190 75 -282 143
-41 30 -135 119 -208 197 -150 158 -180 177 -233 145 -58 -34 -169 -249 -169
-328 0 -111 65 -165 489 -411 125 -73 122 -77 -55 -71 -183 5 -255 24 -425
107 -175 86 -213 83 -258 -20 -85 -196 11 -297 409 -432 155 -53 361 -105 486
-124 90 -13 106 -13 137 -1 45 19 88 82 147 216 26 58 63 131 83 162 168 263
516 563 785 678 103 43 289 88 429 102 414 41 872 -122 1348 -479 84 -63 185
-163 185 -183 0 -54 -78 -21 -340 140 -258 159 -471 262 -695 334 -216 70
-340 82 -463 48 -305 -86 -774 -307 -915 -432 -98 -85 -184 -230 -238 -399
-54 -167 -64 -231 -64 -410 0 -143 3 -174 22 -235 25 -78 80 -171 144 -240 54
-58 78 -58 196 -1 121 59 324 176 329 190 2 6 -22 76 -54 156 -33 80 -65 169
-72 199 -15 65 -9 160 15 220 64 156 384 413 594 475 180 53 503 -33 656 -175
33 -31 70 -61 82 -68 30 -15 99 -14 179 4 36 9 89 15 117 13 109 -7 77 -67
-78 -145 -140 -71 -204 -122 -240 -194 -104 -202 -708 -499 -932 -458 -45 9
-60 7 -98 -10 -176 -78 -654 -462 -744 -598 -39 -59 -42 -123 -8 -173 12 -19
72 -68 132 -109 61 -41 152 -117 204 -168 70 -69 103 -94 128 -99 19 -4 84 -1
144 7 100 11 111 11 126 -4 16 -15 16 -24 3 -89 -32 -173 -26 -204 58 -285 74
-71 401 -314 460 -341 66 -30 90 -26 224 34 54 24 106 44 116 44 65 0 53 -93
-28 -212 -28 -40 -50 -83 -50 -95 0 -13 13 -32 33 -47 53 -41 96 -35 197 24
47 27 90 50 97 50 27 0 45 -15 64 -53 28 -54 15 -100 -46 -158 -25 -24 -45
-51 -45 -61 0 -35 39 -93 155 -233 235 -285 321 -445 395 -745 41 -162 74
-208 123 -170 13 11 32 37 41 59 22 56 38 283 30 426 -11 218 -29 317 -80 439
-174 422 -204 518 -211 671 -9 198 36 387 148 623 117 247 253 432 355 485
138 71 710 197 1244 276 290 42 551 69 800 80 289 14 320 24 320 108 0 85 -86
201 -227 307 -108 81 -209 132 -299 151 -230 49 -1074 -19 -1459 -117 -279
-71 -361 -82 -403 -52 -30 21 -28 37 10 79 39 45 102 78 212 109 274 80 723
133 1331 157 314 12 462 8 558 -17 165 -42 317 -153 449 -329 124 -164 178
-205 270 -205 117 0 236 95 307 243 47 97 91 287 91 389 0 48 -33 139 -68 190
-99 144 -390 344 -622 429 -337 123 -978 218 -1258 187 -144 -16 -204 -8 -308
40 -50 23 -115 47 -145 53 -79 16 -309 13 -409 -6 -144 -27 -158 -28 -190 -15
-78 32 -12 74 230 144 237 68 308 105 337 173 12 30 12 41 -2 88 -8 29 -34 82
-58 117 -58 87 -93 103 -217 102 -162 -1 -342 -50 -570 -154 -201 -92 -280
-113 -280 -76 0 33 130 132 432 327 128 83 235 153 237 155 6 6 -23 45 -85
113 -71 78 -164 141 -208 141 -72 -1 -240 -93 -566 -310 -318 -212 -380 -245
-380 -203 0 9 114 129 253 267 275 272 348 357 330 384 -47 76 -300 140 -383
97 -113 -58 -287 -236 -462 -473 -90 -122 -161 -197 -215 -229 -46 -27 -86
-27 -91 -1 -5 24 46 136 159 348 107 203 149 302 149 355 0 29 -6 39 -32 55
-30 18 -107 28 -120 15z m1917 -1764 c76 -35 101 -91 66 -148 -29 -46 -73 -66
-136 -61 -162 14 -229 157 -100 214 43 19 123 17 170 -5z m-1494 -951 c65 -35
-65 -130 -178 -130 -47 0 -69 24 -58 61 18 54 176 101 236 69z m-757 -146 c44
-17 -9 -87 -126 -168 -77 -52 -133 -59 -188 -22 -95 63 -47 127 131 175 74 20
154 26 183 15z m394 -216 c17 -17 15 -64 -3 -103 -46 -96 -204 -193 -268 -164
-26 12 -47 47 -47 80 0 47 61 118 133 155 75 40 162 55 185 32z m543 -79 c15
-29 0 -59 -45 -94 -46 -35 -115 -45 -139 -20 -23 23 -21 38 10 76 50 59 151
81 174 38z m-1673 -37 c6 -39 -27 -129 -58 -161 -46 -45 -119 -53 -134 -14
-10 24 38 96 101 152 61 54 86 61 91 23z m485 -124 c16 -25 -6 -87 -49 -136
-64 -75 -160 -107 -185 -61 -21 41 32 118 124 179 63 42 92 47 110 18z m1515
-135 c30 -18 26 -53 -8 -70 -50 -25 -151 -11 -164 24 -9 23 12 52 42 59 15 3
32 7 37 9 17 6 69 -6 93 -22z m-944 -129 c39 -39 25 -131 -28 -192 -34 -39
-117 -82 -158 -82 -31 0 -93 49 -101 80 -14 56 83 156 187 192 64 22 80 22
100 2z m509 -15 c19 -26 12 -50 -24 -85 -22 -21 -41 -28 -82 -32 -47 -4 -57
-1 -85 23 -22 18 -32 35 -30 49 8 55 189 92 221 45z m144 -369 c72 -44 76 -88
9 -129 -61 -38 -86 -20 -86 64 0 50 14 85 33 85 7 0 26 -9 44 -20z m-408 -36
c45 -57 16 -188 -52 -236 -67 -48 -157 -14 -157 59 0 79 105 198 177 202 6 1
21 -11 32 -25z m-470 -94 c27 -14 54 -88 46 -127 -15 -84 -160 -121 -231 -59
-34 29 -28 60 23 117 58 64 121 91 162 69z"/>
<path d="M3453 7891 c-43 -20 -164 -137 -209 -203 -80 -115 -73 -242 32 -557
101 -302 387 -1053 530 -1388 36 -84 67 -174 71 -201 5 -46 3 -51 -21 -67 -24
-16 -43 -17 -249 -6 -122 7 -415 30 -652 51 -484 45 -803 67 -827 57 -25 -9
-38 -69 -45 -209 -5 -104 -3 -128 8 -132 8 -3 151 -12 319 -21 431 -22 741
-41 1072 -67 349 -26 351 -26 395 59 28 55 80 103 109 103 22 0 54 -38 54 -62
0 -13 12 -65 26 -115 14 -51 24 -100 21 -108 -11 -28 -64 -28 -337 -2 -151 15
-412 36 -580 47 -524 34 -609 40 -817 61 -237 25 -247 23 -275 -54 -24 -64
-34 -153 -19 -170 11 -14 52 -19 331 -37 406 -26 1199 -60 1405 -60 150 0 255
13 290 36 53 35 80 3 209 -253 48 -95 104 -195 126 -222 23 -29 37 -56 34 -65
-13 -34 -123 -36 -609 -11 -432 21 -981 35 -1433 35 l-393 0 3 -137 3 -138
410 -7 c226 -4 730 -8 1120 -10 825 -4 827 -3 903 68 66 63 80 59 144 -33 29
-43 69 -88 88 -101 31 -21 43 -23 105 -19 85 7 160 27 425 112 592 192 1087
263 1265 181 134 -61 397 -380 480 -582 31 -74 31 -102 2 -145 -26 -38 -62
-55 -100 -45 -45 11 -136 106 -240 250 -117 163 -259 311 -332 347 -75 36
-215 33 -394 -9 -501 -119 -1023 -301 -1053 -367 -15 -33 3 -98 58 -213 49
-100 105 -172 135 -172 54 0 193 74 453 243 217 141 326 197 383 197 38 0 43
-3 49 -27 10 -37 -28 -67 -196 -163 -175 -99 -307 -200 -478 -364 l-141 -136
-1496 0 c-1281 0 -1495 -2 -1495 -14 0 -36 31 -170 49 -210 10 -24 28 -49 39
-55 71 -38 2143 28 2671 85 180 19 210 28 222 64 22 62 91 61 169 -1 78 -63
116 -47 317 138 143 130 269 227 356 274 58 31 107 36 115 11 6 -20 -154 -172
-432 -410 l-247 -212 -102 0 c-137 0 -1317 -27 -1747 -40 -739 -22 -1115 -50
-1293 -96 -83 -21 -145 -58 -153 -91 -10 -37 16 -102 49 -127 27 -20 40 -21
275 -20 266 1 579 18 1172 64 479 37 670 48 1065 60 360 11 478 25 636 76 135
43 168 44 206 3 41 -44 105 -79 145 -79 45 0 125 42 224 116 80 60 178 154
334 322 102 109 129 122 165 82 14 -15 17 -32 13 -80 -4 -60 -5 -61 -76 -131
-123 -122 -352 -467 -352 -530 0 -81 327 -265 434 -245 66 13 94 65 197 366
75 219 150 386 181 404 52 31 63 -60 61 -501 l-3 -372 38 -11 c58 -17 452 -26
452 -11 0 7 -9 88 -21 179 -12 92 -22 233 -23 314 -1 134 1 149 20 175 44 60
120 30 168 -66 39 -76 56 -149 66 -280 12 -153 29 -190 110 -239 144 -86 217
-90 393 -24 249 94 300 142 258 238 -25 55 -106 133 -289 276 -189 148 -266
219 -298 274 -29 49 -26 75 12 92 86 40 182 -15 599 -342 61 -48 134 -98 163
-112 48 -24 56 -25 100 -14 75 19 139 59 205 129 114 123 224 320 243 438 5
36 3 42 -25 66 -65 54 -250 98 -654 153 -294 40 -407 59 -454 79 -36 15 -43
39 -15 50 37 16 393 16 724 1 190 -9 367 -16 391 -16 l46 0 -33 123 c-42 156
-67 215 -98 221 -13 3 -257 7 -543 9 -509 4 -595 9 -595 37 0 56 294 94 808
106 171 4 312 9 312 12 0 15 -161 272 -195 310 l-39 45 -131 -6 c-71 -3 -247
-24 -390 -46 -373 -58 -523 -68 -542 -38 -17 28 118 80 447 172 239 66 397
125 415 155 16 26 -86 120 -209 194 -82 49 -109 47 -263 -18 -304 -129 -640
-203 -651 -144 -5 25 73 78 213 147 149 74 279 120 369 131 47 6 75 15 89 29
l20 20 -24 35 c-63 94 -309 258 -385 258 -41 0 -142 -59 -355 -209 -168 -117
-233 -153 -250 -136 -20 20 19 71 179 236 86 89 181 190 210 225 51 62 52 64
37 91 -28 56 -194 186 -260 205 -34 10 -80 -28 -156 -131 -108 -145 -288 -315
-439 -412 -71 -46 -107 -51 -102 -12 4 37 98 173 249 362 181 224 273 359 273
400 0 40 -48 109 -111 158 -56 45 -98 58 -131 40 -58 -30 -164 -118 -250 -207
-78 -82 -98 -109 -117 -162 -39 -107 -187 -236 -259 -228 -43 5 -40 40 12 142
58 113 154 249 269 378 101 115 119 145 119 202 2 72 -33 118 -135 180 -75 44
-130 55 -159 29 -26 -23 -162 -205 -305 -409 -183 -259 -273 -355 -303 -319
-8 9 -9 28 -5 54 8 50 106 251 225 461 145 256 213 397 206 424 -13 53 -240
236 -292 236 -35 0 -92 -73 -215 -278 -264 -439 -353 -540 -414 -472 -38 42 3
139 190 450 158 263 224 397 232 473 3 32 10 60 16 64 20 12 86 3 228 -32 278
-67 492 -93 640 -76 125 14 139 24 139 104 0 71 -22 165 -47 204 -26 39 -98
81 -188 108 -144 44 -887 185 -975 185 -21 0 -42 -5 -45 -10 -8 -13 16 -89 63
-198 l36 -82 -21 -28 c-11 -15 -49 -41 -85 -58 -116 -57 -178 -141 -369 -499
-114 -214 -192 -315 -232 -300 -31 12 -29 43 6 122 20 43 51 118 71 167 49
119 85 189 171 331 95 158 112 193 131 266 22 85 12 134 -36 180 -68 65 -168
85 -246 50 -46 -21 -70 -51 -103 -131 -63 -151 -204 -395 -264 -458 -44 -46
-65 -56 -83 -41 -40 33 8 196 144 484 118 251 128 286 101 336 -14 27 -127 99
-155 99 -29 0 -98 -77 -198 -221 -188 -271 -282 -379 -332 -379 -53 0 -38 91
38 245 22 44 74 140 115 214 81 143 113 216 113 257 0 32 -47 78 -96 94 -84
28 -145 -14 -256 -177 -60 -88 -105 -133 -132 -133 -3 0 -13 11 -22 24 -14 22
-14 30 0 84 8 33 34 101 56 151 51 114 51 141 -5 159 -22 8 -80 16 -130 18
-75 4 -97 2 -132 -15z"/>
<path d="M7895 7671 c-203 -54 -362 -164 -417 -289 -46 -102 -29 -264 34 -329
124 -128 472 -100 713 57 138 90 255 254 255 359 0 39 -5 49 -44 87 -50 47
-145 98 -226 119 -76 20 -229 18 -315 -4z"/>
<path d="M5972 6599 c6 -17 115 -100 301 -228 254 -174 308 -193 384 -135 72
54 79 83 38 164 -49 96 -117 145 -253 182 -98 26 -478 40 -470 17z"/>
<path d="M557 5729 c-103 -20 -264 -114 -338 -197 -69 -77 -94 -142 -93 -242
0 -98 22 -161 83 -247 75 -105 142 -132 471 -187 444 -75 783 -103 924 -76 61
11 71 17 96 51 60 83 151 434 154 594 1 104 -17 139 -94 178 -70 35 -148 51
-401 82 -434 53 -681 67 -802 44z"/>
<path d="M2047 4698 c-12 -50 -19 -139 -13 -163 19 -74 141 -88 966 -110 1016
-27 1129 -24 1180 30 43 45 6 128 -70 159 -148 59 -589 87 -1616 101 l-441 7
-6 -24z"/>
<path d="M575 4691 c-212 -11 -262 -28 -410 -138 -90 -67 -135 -114 -155 -162
-12 -29 -11 -43 9 -125 34 -133 65 -198 125 -255 81 -76 177 -116 354 -145
383 -64 1097 -76 1230 -21 52 22 65 65 70 235 5 187 -11 443 -31 492 -8 20
-26 43 -39 52 -38 25 -134 44 -278 55 -185 14 -693 21 -875 12z"/>
<path d="M2180 3933 c-64 -10 -111 -27 -132 -50 -20 -22 -23 -34 -22 -106 0
-105 10 -123 71 -132 27 -3 404 -1 838 4 435 6 978 11 1207 11 229 0 423 3
432 6 12 5 16 20 15 68 0 75 -16 123 -49 148 -31 22 -217 33 -840 48 -391 9
-1465 12 -1520 3z"/>
<path d="M705 3690 c-136 -10 -207 -26 -291 -65 -151 -69 -277 -180 -308 -271
-29 -85 -16 -209 34 -321 31 -71 100 -135 189 -177 108 -51 231 -74 451 -86
236 -12 1118 -2 1123 14 5 19 -11 465 -23 600 -12 142 -32 252 -48 268 -31 31
-148 40 -587 43 -242 2 -485 0 -540 -5z"/>
<path d="M2835 3513 c-270 -5 -676 -24 -699 -33 -31 -12 -49 -66 -50 -151 -1
-80 9 -95 77 -108 147 -30 817 -38 1724 -21 667 13 953 26 971 44 18 18 3 73
-47 182 l-38 81 -309 6 c-281 6 -1286 6 -1629 0z"/>
<path d="M890 2543 c-171 -8 -343 -43 -492 -99 -166 -62 -218 -151 -218 -367
0 -164 37 -255 147 -364 46 -46 86 -74 155 -107 127 -61 181 -70 395 -63 98 3
342 11 543 16 477 14 513 21 552 109 19 42 20 59 15 177 -11 235 -65 570 -103
647 -25 48 -54 51 -509 53 -231 1 -449 0 -485 -2z"/>
<path d="M5040 2383 c-209 -11 -2389 -188 -2562 -208 -153 -18 -228 -40 -246
-75 -9 -17 -12 -57 -10 -130 3 -90 7 -112 28 -150 37 -65 72 -75 220 -62 108
10 2121 322 2440 378 491 86 654 140 621 203 -24 45 -57 51 -253 49 -101 -1
-208 -3 -238 -5z"/>
<path d="M5590 2124 c-404 -38 -858 -150 -979 -242 -42 -31 -91 -135 -121
-252 -33 -134 -59 -208 -108 -305 -56 -112 -88 -159 -277 -410 -304 -403 -402
-608 -350 -731 37 -88 254 -111 401 -42 33 15 99 70 199 168 171 167 214 193
306 192 74 -1 223 -28 261 -48 46 -24 58 -62 68 -213 10 -160 25 -207 67 -216
15 -4 41 -11 57 -16 16 -5 48 -9 71 -9 49 0 213 33 272 55 73 28 143 125 143
199 0 46 19 105 41 127 42 42 200 13 323 -61 32 -19 105 -78 162 -132 62 -58
118 -101 141 -110 49 -17 247 -16 328 1 46 10 68 22 97 51 36 36 38 41 38 102
0 102 -68 309 -127 386 -49 64 -158 94 -493 132 -797 90 -885 105 -930 150
-38 38 -22 126 46 264 58 117 153 235 334 416 178 177 252 268 303 369 32 65
41 131 21 151 -23 23 -169 35 -294 24z"/>
<path d="M6570 1665 c0 -96 4 -119 34 -210 19 -56 65 -163 102 -236 81 -163
124 -261 174 -399 37 -104 54 -168 126 -470 20 -85 43 -168 51 -183 8 -16 31
-35 51 -44 48 -20 236 -29 324 -15 142 22 176 62 185 216 9 172 24 186 200
186 200 0 204 -4 296 -254 16 -43 64 -94 111 -118 56 -29 165 -35 238 -14 114
33 208 142 230 266 7 44 19 72 38 94 26 29 33 31 92 31 49 0 76 -6 123 -29 57
-28 87 -55 228 -204 179 -189 454 -172 497 31 35 172 -100 438 -281 553 -111
70 -183 80 -654 94 -192 6 -500 17 -684 25 -312 13 -336 15 -380 37 -37 19
-52 34 -78 84 -46 86 -81 228 -97 387 -15 151 -29 188 -85 221 -73 42 -130 48
-493 53 l-348 5 0 -107z"/>
</g>
</svg>
